REM DIRINDEX 1\2,1\3
REM DIRNAME folder01,folder02,folder03
TITLE ""
FILE "1661-1680.mp3" MP3
  TRACK 01 AUDIO
    TITLE "0:"
    INDEX 01 00:00:00
  TRACK 02 AUDIO
    TITLE "2:cjc039_2321"
    INDEX 01 00:00:27
  TRACK 03 AUDIO
    TITLE "0:"
    INDEX 01 00:01:38
  TRACK 04 AUDIO
    TITLE "3:cjc039_2322"
    INDEX 01 00:02:18
  TRACK 05 AUDIO
    TITLE "0:"
    INDEX 01 00:06:35
  TRACK 06 AUDIO
    TITLE "2:cjc039_2323"
    INDEX 01 00:08:17
  TRACK 07 AUDIO
    TITLE "0:"
    INDEX 01 00:09:53
  TRACK 08 AUDIO
    TITLE "3:cjc039_2324"
    INDEX 01 00:10:31
  TRACK 09 AUDIO
    TITLE "0:"
    INDEX 01 00:13:69
  TRACK 10 AUDIO
    TITLE "2:cjc039_2325"
    INDEX 01 00:15:50
  TRACK 11 AUDIO
    TITLE "0:"
    INDEX 01 00:16:65
  TRACK 12 AUDIO
    TITLE "3:cjc039_2326"
    INDEX 01 00:17:47
  TRACK 13 AUDIO
    TITLE "0:"
    INDEX 01 00:21:27
  TRACK 14 AUDIO
    TITLE "2:cjc039_2327"
    INDEX 01 00:23:04
  TRACK 15 AUDIO
    TITLE "0:"
    INDEX 01 00:24:47
  TRACK 16 AUDIO
    TITLE "3:cjc039_2328"
    INDEX 01 00:25:23
  TRACK 17 AUDIO
    TITLE "0:"
    INDEX 01 00:30:42
  TRACK 18 AUDIO
    TITLE "2:cjc039_2329"
    INDEX 01 00:32:19
  TRACK 19 AUDIO
    TITLE "0:"
    INDEX 01 00:33:15
  TRACK 20 AUDIO
    TITLE "3:cjc039_2330"
    INDEX 01 00:33:66
  TRACK 21 AUDIO
    TITLE "0:"
    INDEX 01 00:37:14
  TRACK 22 AUDIO
    TITLE "2:cjc039_2331"
    INDEX 01 00:38:67
  TRACK 23 AUDIO
    TITLE "0:"
    INDEX 01 00:40:09
  TRACK 24 AUDIO
    TITLE "3:cjc039_2332"
    INDEX 01 00:40:60
  TRACK 25 AUDIO
    TITLE "0:"
    INDEX 01 00:45:12
  TRACK 26 AUDIO
    TITLE "2:cjc039_2333"
    INDEX 01 00:46:64
  TRACK 27 AUDIO
    TITLE "0:"
    INDEX 01 00:47:74
  TRACK 28 AUDIO
    TITLE "3:cjc039_2334"
    INDEX 01 00:48:51
  TRACK 29 AUDIO
    TITLE "0:"
    INDEX 01 00:52:73
  TRACK 30 AUDIO
    TITLE "2:cjc039_2335"
    INDEX 01 00:54:52
  TRACK 31 AUDIO
    TITLE "0:"
    INDEX 01 00:56:02
  TRACK 32 AUDIO
    TITLE "3:cjc039_2336"
    INDEX 01 00:56:59
  TRACK 33 AUDIO
    TITLE "0:"
    INDEX 01 01:00:62
  TRACK 34 AUDIO
    TITLE "2:cjc039_2337"
    INDEX 01 01:02:36
  TRACK 35 AUDIO
    TITLE "0:"
    INDEX 01 01:03:65
  TRACK 36 AUDIO
    TITLE "3:cjc039_2338"
    INDEX 01 01:04:45
  TRACK 37 AUDIO
    TITLE "0:"
    INDEX 01 01:07:74
  TRACK 38 AUDIO
    TITLE "2:cjc039_2339"
    INDEX 01 01:09:52
  TRACK 39 AUDIO
    TITLE "0:"
    INDEX 01 01:11:05
  TRACK 40 AUDIO
    TITLE "3:cjc039_2340"
    INDEX 01 01:11:66
  TRACK 41 AUDIO
    TITLE "0:"
    INDEX 01 01:17:18
  TRACK 42 AUDIO
    TITLE "2:cjc039_2341"
    INDEX 01 01:18:68
  TRACK 43 AUDIO
    TITLE "0:"
    INDEX 01 01:20:02
  TRACK 44 AUDIO
    TITLE "3:cjc039_2342"
    INDEX 01 01:20:57
  TRACK 45 AUDIO
    TITLE "0:"
    INDEX 01 01:23:71
  TRACK 46 AUDIO
    TITLE "2:cjc039_2343"
    INDEX 01 01:25:49
  TRACK 47 AUDIO
    TITLE "0:"
    INDEX 01 01:26:70
  TRACK 48 AUDIO
    TITLE "3:cjc039_2344"
    INDEX 01 01:27:50
  TRACK 49 AUDIO
    TITLE "0:"
    INDEX 01 01:31:38
  TRACK 50 AUDIO
    TITLE "2:cjc039_2345"
    INDEX 01 01:33:13
  TRACK 51 AUDIO
    TITLE "0:"
    INDEX 01 01:34:26
  TRACK 52 AUDIO
    TITLE "3:cjc039_2346"
    INDEX 01 01:34:73
  TRACK 53 AUDIO
    TITLE "0:"
    INDEX 01 01:39:23
  TRACK 54 AUDIO
    TITLE "2:cjc039_2347"
    INDEX 01 01:41:01
  TRACK 55 AUDIO
    TITLE "0:"
    INDEX 01 01:42:14
  TRACK 56 AUDIO
    TITLE "3:cjc039_2348"
    INDEX 01 01:42:69
  TRACK 57 AUDIO
    TITLE "0:"
    INDEX 01 01:47:39
  TRACK 58 AUDIO
    TITLE "2:cjc039_2349"
    INDEX 01 01:49:16
  TRACK 59 AUDIO
    TITLE "0:"
    INDEX 01 01:50:21
  TRACK 60 AUDIO
    TITLE "3:cjc039_2350"
    INDEX 01 01:50:74
  TRACK 61 AUDIO
    TITLE "0:"
    INDEX 01 01:54:54
  TRACK 62 AUDIO
    TITLE "2:cjc039_2351"
    INDEX 01 01:56:26
  TRACK 63 AUDIO
    TITLE "0:"
    INDEX 01 01:57:53
  TRACK 64 AUDIO
    TITLE "3:cjc039_2352"
    INDEX 01 01:58:30
  TRACK 65 AUDIO
    TITLE "0:"
    INDEX 01 02:02:46
  TRACK 66 AUDIO
    TITLE "2:cjc039_2353"
    INDEX 01 02:04:21
  TRACK 67 AUDIO
    TITLE "0:"
    INDEX 01 02:05:34
  TRACK 68 AUDIO
    TITLE "3:cjc039_2354"
    INDEX 01 02:06:14
  TRACK 69 AUDIO
    TITLE "0:"
    INDEX 01 02:10:38
  TRACK 70 AUDIO
    TITLE "2:cjc039_2355"
    INDEX 01 02:12:15
  TRACK 71 AUDIO
    TITLE "0:"
    INDEX 01 02:13:65
  TRACK 72 AUDIO
    TITLE "3:cjc039_2356"
    INDEX 01 02:14:43
  TRACK 73 AUDIO
    TITLE "0:"
    INDEX 01 02:19:35
  TRACK 74 AUDIO
    TITLE "2:cjc039_2357"
    INDEX 01 02:21:10
  TRACK 75 AUDIO
    TITLE "0:"
    INDEX 01 02:22:13
  TRACK 76 AUDIO
    TITLE "3:cjc039_2358"
    INDEX 01 02:22:64
  TRACK 77 AUDIO
    TITLE "0:"
    INDEX 01 02:27:14
  TRACK 78 AUDIO
    TITLE "2:cjc039_2359"
    INDEX 01 02:28:71
  TRACK 79 AUDIO
    TITLE "0:"
    INDEX 01 02:30:27
  TRACK 80 AUDIO
    TITLE "3:cjc039_2360"
    INDEX 01 02:31:06
  TRACK 81 AUDIO
    TITLE "0:"
    INDEX 01 02:35:26
